<svg width="238" height="48" viewBox="0 0 238 48" fill="none" xmlns="http://www.w3.org/2000/svg">
<path d="M49.3542 37.7243C50.4742 37.4603 51.497 36.8587 52.6429 36.9517C54.537 37.2439 55.4343 36.8738 56.8808 35.9367C57.9424 36.5448 59.2029 37.813 61.7932 37.7849C62.6257 37.839 63.5922 37.4278 63.3976 36.547C63.3457 35.7831 64.8419 36.1142 64.937 35.1403C65.1035 34.5582 64.9803 34.582 64.0722 34.0344C62.5586 33.2056 62.5846 31.6214 61.4451 30.5956C61.3197 30.4463 60.95 30.1779 60.9392 29.9896C57.1402 19.6991 61.6181 23.2115 52.991 13.5009C50.5369 11.6787 46.9499 7.48889 43.7629 7.73777C40.8699 7.83083 40.1369 9.46909 38.005 10.1638C35.3152 11.1182 33.7022 11.3909 31.5379 13.41C30.1368 14.5873 28.2752 13.133 26.2838 15.2301C22.0654 19.487 21.5919 15.4854 14.6665 20.8958C11.0859 24.0079 6.13883 21.7615 10.1259 17.76C12.1475 16.3165 14.7075 14.5397 13.7627 11.7826C13.4427 9.71797 10.4783 9.14664 8.6102 8.85015C7.52911 8.63373 5.68261 7.21188 5.07288 6.82666C3.24368 8.88044 4.15828 13.6264 8.09992 14.109C8.26297 14.1186 8.39304 14.2488 8.40263 14.412C8.41776 14.5544 8.38257 14.6976 8.30317 14.8167C5.4772 17.0436 4.86963 17.9526 4.77017 20.4825C4.55396 23.9451 7.40587 26.5681 11.0405 26.4491C11.6188 26.4587 12.197 26.4247 12.7702 26.3473C12.8697 26.3473 12.9713 26.3473 12.9713 26.4491C13.2567 28.0137 13.3778 29.9269 13.8816 30.496C13.981 30.6973 13.981 30.9007 13.78 31.0003C12.6232 32.1386 10.1583 30.8553 9.53561 32.9221C9.14858 33.7661 9.24155 34.8157 8.32479 35.2485C7.67614 35.1057 7.50316 34.1448 6.60586 34.1361C5.70856 34.1275 4.22747 34.7984 3.57881 36.2613C2.88692 36.7353 2.18637 36.4128 1.86205 37.4733C1.71502 37.4625 1.63502 38.0338 1.66096 38.2827C1.63291 38.7473 1.49428 39.1984 1.25664 39.5985C0.590687 40.4403 1.31285 41.4705 2.368 41.622C3.14854 41.6826 3.64152 41.9899 3.88152 41.7215C3.98098 41.7215 3.98098 41.622 4.0826 41.622C4.29882 41.4164 4.46531 41.5657 4.68801 41.622C5.13774 41.6458 5.79072 41.9964 6.30532 41.9249C6.4164 41.9112 6.5277 41.9486 6.60802 42.0267C8.12155 42.0137 8.60155 41.4099 9.13344 40.6091C9.10534 40.2499 9.3929 40.0032 9.53777 39.7002C9.67615 39.5552 9.77561 39.4838 9.9421 39.4968C10.2037 39.5725 10.807 39.6612 10.954 39.7002C13.2675 39.9036 13.8729 37.536 15.7108 37.272C16.1648 37.272 17.0081 37.3607 18.8416 37.575C20.0438 37.6702 21.22 36.7959 22.3789 36.1596C22.8979 35.8999 23.3497 35.7549 23.793 35.1468C24.3379 34.714 24.993 32.0434 25.713 32.0131C27.1898 31.9828 28.5865 31.498 30.0568 31.5067C31.8622 31.4266 33.6979 31.9287 35.3109 31.3054C35.3714 31.3271 35.726 31.2513 35.8169 31.405C36.046 31.7448 36.6925 31.8962 36.5239 32.3161C36.5239 32.4178 36.3206 32.5174 36.2212 32.6191C35.8882 32.6191 35.4039 32.645 35.1098 33.0238C34.9628 33.1579 34.552 33.1969 34.4006 33.0238C33.4341 33.1103 30.699 32.7056 30.3595 34.1361C30.6168 35.2442 31.5271 38.0186 33.3866 37.7784C33.4882 37.7784 33.6893 37.878 33.6893 37.9797C34.3963 39.395 35.6093 40.3062 36.7163 40.3062C37.8234 40.3062 40.578 39.3171 42.6774 38.2827H43.5726C44.8547 38.1636 45.3672 37.8195 46.098 36.3609C47.0688 35.3914 46.2839 38.3454 49.3629 37.7286L49.3542 37.7243ZM47.4083 31.2037C47.1056 31.5067 46.8029 31.6084 46.3985 32.2144C45.6915 31.9114 45.5899 31.0003 45.4904 30.5956C46.0958 30.496 47.4083 30.1909 48.1175 30.0913C47.711 30.496 47.5077 30.6973 47.4061 31.2037H47.4083Z" fill="white"/>
<path d="M63.1998 34.4759C61.8871 33.7689 61.3811 32.2533 60.5723 31.1419C58.4574 28.9539 58.0984 25.2112 57.5448 22.1475C56.9869 19.1724 54.4459 16.9714 52.6835 14.6709C51.12 13.3952 47.0393 9.52937 45.1147 8.911C42.5737 7.85372 40.3571 9.85152 38.2422 10.831C36.5251 11.538 34.7065 11.7391 33.1905 13.0536C30.8118 16.1065 29.3823 13.6633 26.6208 16.0806C22.512 20.3875 20.955 16.5973 15.3044 21.6394C13.7906 22.5475 12.3741 23.4578 10.5468 23.3561C7.64256 23.2199 6.65429 19.3173 8.92926 17.5962C10.5144 15.8233 14.4069 14.0006 12.4715 11.1337C10.4603 9.34126 8.09453 10.1045 5.70278 8.10669C4.5999 9.83639 6.00986 12.1823 7.82421 12.7553C8.56812 13.2179 10.2981 12.4807 10.6528 13.5574C9.88725 15.0903 7.7961 15.9206 6.81432 17.3995C4.36851 20.2232 6.78404 24.8523 10.2484 25.0685C11.5286 25.4837 13.1613 24.4372 13.9874 24.8675C14.089 25.8772 13.9874 26.7874 14.1907 27.6977C14.2837 28.6922 15.4168 29.7603 14.7962 30.7246C13.7908 31.5903 12.4875 32.0301 11.1631 31.9506C10.4733 32.7441 10.3565 33.6457 9.94997 34.5775C9.4461 35.4856 8.4362 35.89 7.7269 36.2943C7.2598 37.0056 6.79485 37.7926 5.80658 37.9115C5.20108 38.6185 5.09944 39.5288 4.89833 40.4391C7.42631 41.1072 7.96694 40.7677 9.34446 38.6185C9.85049 38.1148 10.5576 38.5191 11.0615 38.6185C12.4974 38.4477 13.5679 37.4878 14.5994 36.5991C18.2757 35.637 18.2411 38.0456 22.4796 35.2846C23.1889 34.9819 23.4916 34.1732 23.7944 33.5657C24.1491 32.8889 25.1287 31.5852 23.896 31.2436C20.7236 37.6651 15.2006 32.4392 10.9599 37.2975C10.3111 37.4769 10.815 36.4672 10.9599 36.2856C14.0025 31.8533 20.9226 35.7559 23.2862 30.0155C23.7014 29.1333 23.4657 25.6177 24.4994 25.6696C24.601 25.6696 24.9038 25.7712 24.9038 25.9723C23.922 30.2576 24.5707 31.5873 29.1466 30.8371C30.7123 30.383 35.2017 31.9808 35.1087 29.8274C35.1087 29.423 34.7043 29.222 35.1087 28.9193C35.2082 28.8177 35.5131 28.9193 35.6126 29.0187C35.898 30.7484 37.4161 32.0176 38.8563 32.7592C41.7606 34.7354 40.5863 37.3148 37.2388 37.2045C36.1272 36.5991 35.8245 35.4856 35.0157 34.5775C34.0707 33.7495 32.7797 34.1451 31.6811 34.3743C31.1361 35.1981 32.4315 36.1797 32.691 37.0034C33.197 37.3061 33.9042 36.8002 34.3086 37.4056C34.713 38.011 34.9141 38.6185 35.5217 39.0229C37.2734 40.7028 40.928 37.7515 42.7964 37.6088C44.4291 37.7861 45.1752 36.2986 45.7267 35.0813C46.6479 33.3992 44.1978 31.7365 44.0096 30.2317C43.4517 30.0782 42.7121 29.6414 42.2904 30.2317C42.5997 30.9841 44.334 33.7365 44.2107 34.5775C43.9837 35.1851 43.469 36.5948 42.697 36.4975C42.9002 35.7905 43.203 34.984 43.203 34.1732C42.8354 33.3084 41.2113 30.8111 41.0816 29.929C41.4038 29.0749 43.0624 29.5701 43.7069 28.716C44.4162 27.6047 44.6173 26.4934 44.8206 25.0793C44.864 24.9334 44.9776 24.8189 45.1233 24.7745C46.1073 25.408 45.106 28.4501 44.5156 29.1203C44.4594 30.1668 46.5225 29.4663 46.942 29.1203C47.7227 29.2825 49.3056 28.5041 49.6689 29.0187C49.1957 29.6153 48.8518 30.3037 48.659 31.0403C48.0535 31.7473 47.0436 32.2533 47.0436 33.263C47.1539 33.8986 48.0081 32.8738 48.0535 33.6673C47.1734 34.7851 47.2837 35.0554 47.5475 36.2943C48.4709 37.5915 50.2355 36.5235 51.3881 36.1948C53.3344 35.4316 55.525 36.6402 57.0474 34.5775C57.4594 34.6128 57.8321 34.8362 58.0573 35.1829C59.1831 36.3655 60.7715 36.994 62.4018 36.9018C63.0636 36.4413 61.6168 36.0802 61.3919 35.8899C60.6848 35.4856 59.7744 34.8802 59.5732 34.0716C59.3073 32.943 58.492 31.9095 57.9557 30.8392C60.315 30.8738 60.5637 35.8013 64.0107 35.0835C64.1794 34.9667 64.1621 34.8413 64.1124 34.6792L63.1998 34.4759ZM46.224 19.2178C46.1224 19.3195 46.0208 19.3195 45.8196 19.3195C45.5493 18.2989 45.4542 17.233 44.9092 16.3876C44.6259 16.1109 44.2605 15.7498 44.5048 15.2763C44.6565 15.1006 44.9119 15.0579 45.1125 15.1747C46.0381 15.8665 46.1938 16.8309 46.224 18.0049C46.4251 18.206 46.3235 18.8135 46.224 19.2178ZM54.5086 33.4662C54.0469 33.5891 53.5721 33.6566 53.0943 33.6673H52.9949C52.3959 33.1159 53.6436 32.0154 54.3075 32.05C54.3724 32.05 54.5432 32.05 54.6103 32.05C54.9801 32.2035 54.8849 33.1787 54.5086 33.4662ZM57.1361 27.6047C57.0236 27.8015 56.8506 28.316 56.6322 28.3117C56.4138 28.3074 56.3187 28.3441 56.3295 28.1106C56.31 27.4317 56.1997 26.5972 55.6202 26.1907C54.301 24.1388 53.968 26.7096 53.4987 26.3918C53.2176 25.8209 53.6609 25.1745 53.9031 24.675C54.0156 24.5388 54.061 24.381 54.2059 24.2707C54.4221 23.0275 55.5575 23.7367 55.8234 24.4718C56.5198 25.3366 57.3372 26.3118 57.2377 27.302C57.1361 27.2004 57.1361 27.4036 57.1361 27.6047ZM5.9039 36.9018C6.61104 36.4975 7.01543 35.7905 7.31818 35.1829C7.10193 34.8435 6.8381 34.3959 6.30829 34.5775C5.82775 34.9488 5.32194 35.2862 4.79453 35.5873C4.54151 36.2748 5.17297 37.1397 5.90606 36.9018H5.9039ZM3.68299 36.9018C2.4828 37.3926 3.11857 38.8715 2.37034 39.6304C2.37034 39.7299 2.16707 39.9331 2.37034 40.0347C2.87421 40.1342 3.2786 40.3374 3.88411 40.4391C4.15442 39.5353 4.41609 38.5299 4.59125 37.7105C4.38797 37.4056 4.08522 37.0034 3.68083 36.9018H3.68299ZM36.4213 34.6792C36.8257 35.1829 36.8257 35.89 37.3318 36.2943C37.9499 36.3806 38.5754 36.1971 39.0488 35.7905C39.3516 35.5873 38.9472 35.2846 38.8477 34.9819C38.5428 34.5775 38.746 33.7689 38.0389 33.7689C37.2734 33.9462 36.4343 33.7257 35.7142 33.97C35.7142 34.2748 36.3197 34.2748 36.4213 34.6792Z" fill="#DB0A40"/>
<path d="M85.9067 27.8016C85.8569 26.131 85.1815 24.3178 84.0516 23.127L83.9997 23.0665C83.4217 25.3465 82.5927 27.3586 80.2116 30.9829C79.296 32.3703 77.6704 32.4309 76.6638 33.7038C76.4257 33.5741 76.495 33.3969 76.1876 33.7254C77.4561 32.3639 76.0058 33.0641 76.5989 32.4092C78.8111 29.9671 80.8372 27.7671 81.6944 24.4713C81.3329 24.923 81.1142 25.0634 80.7506 25.5216C81.1619 24.119 81.4822 22.9282 81.7874 21.4889L81.3978 21.3333C80.0406 25.9128 77.8002 29.9196 73.7005 32.6686C68.3756 36.5328 72.8715 35.2404 73.7676 34.4407C67.0573 41.2808 52.2039 45.6788 43.6667 38.7199C44.9135 39.9323 46.4439 41.2873 47.8985 42.1777C47.0131 42.0264 46.3832 41.3414 45.5477 41.0799C45.5607 41.108 47.5781 43.7294 53.6 44.4167C53.9875 44.4599 54.3576 44.4988 54.7148 44.5312C62.9251 45.1796 63.4251 43.7122 69.1548 42.5019C69.4124 42.6121 67.3084 43.697 64.4144 44.514C59.8449 46.1824 54.5395 44.9462 50.667 44.5442H50.6843C50.7731 44.5874 51.3748 44.8641 54.455 45.9641C54.2386 46.0419 53.232 46.1802 49.0327 44.3821C59.3362 50.3145 70.4255 45.8236 79.5298 39.0829C79.5298 39.1132 79.5168 39.1564 79.5168 39.1932C79.5969 39.2061 79.6986 39.2191 79.7808 39.2256C79.7311 39.3704 79.7311 39.3704 79.0254 40.2111C80.5623 38.9727 81.3502 37.0514 82.978 35.8887C82.1446 37.5593 81.0796 38.7566 79.0968 40.693C79.2478 40.5778 79.3923 40.4544 79.5298 40.3234C76.5318 43.12 72.5771 45.8949 66.4404 47.3516C66.8846 47.3001 67.324 47.2134 67.7543 47.0922C66.9772 47.3083 66.9556 47.3343 66.6266 47.4423C66.8301 47.4164 66.83 47.4164 67.8885 47.2024C67.2716 47.505 66.5595 47.6498 64.8365 47.9999C75.0512 46.3834 85.6751 38.4475 85.9067 27.8016Z" fill="url(#paint0_linear_3_22)"/>
<path d="M75.5566 41.7691C71.5044 44.3323 67.0211 46.568 62.0133 47.1388C68.0374 47.3542 75.186 43.0184 79.08 39.4666C77.9142 40.242 76.7484 41.0217 75.5566 41.7691Z" fill="url(#paint1_linear_3_22)"/>
<path d="M69.0533 42.4534C63.2877 43.6797 62.961 45.1448 54.7117 44.5207C54.0626 44.72 50.6335 44.5097 50.0667 44.3236C50.0948 44.3236 50.3609 44.4397 50.5902 44.5316H50.5751C51.4405 44.4221 57.1456 45.6529 58.9672 45.4076C61.3319 45.5697 68.7526 43.3381 69.0533 42.4534Z" fill="url(#paint2_linear_3_22)"/>
<path d="M81.9183 21.6347L81.7141 21.5466C81.4055 22.9686 81.0861 24.1586 80.6733 25.5527C81.0383 25.0973 81.2578 24.9577 81.6206 24.5088C80.7516 27.7845 78.7266 29.9712 76.5061 32.3985C75.9108 33.0429 77.3752 32.3534 76.0933 33.7066C76.4019 33.3801 76.3323 33.5563 76.5713 33.6852C77.5794 32.42 79.2133 32.3598 80.1323 30.9808C82.5223 27.3764 83.3544 25.3787 83.9324 23.1125C83.9516 23.1316 83.9697 23.1516 83.9867 23.1727C83.4048 22.5321 82.7022 22.0097 81.9183 21.6347Z" fill="url(#paint3_linear_3_22)"/>
<path d="M54.9148 39.5495C51.1308 37.4046 53.8738 38.8309 57.1891 39.6146C59.6179 40.213 62.1237 40.4327 64.6189 40.2659C68.5671 38.7463 71.9407 36.5384 73.8154 34.4435C72.9169 35.2684 68.4742 36.5037 73.7506 32.6633C77.837 29.9019 80.0768 25.8813 81.4267 21.2832C80.3681 20.8922 79.269 20.6227 78.1502 20.48C76.5692 24.2596 76.3338 26.8843 72.8306 28.9727C68.9213 31.5301 71.3683 30.8744 71.4072 30.8549C71.7117 30.7333 72.0015 30.5775 72.2712 30.3903C70.7593 32.8218 68.1286 34.374 64.9925 35.0752C64.8932 36.0565 63.3964 35.7265 63.4547 36.4863C63.647 37.3699 62.6837 37.7889 61.8522 37.7281C59.2604 37.7563 58.0055 36.4841 56.945 35.8741C55.2906 36.9769 54.5131 37.1181 52.431 36.8858C51.3964 36.901 50.4526 37.4285 49.4267 37.6673C50.8953 38.9872 57.2193 40.6849 54.9148 39.5495ZM74.8608 29.0205C75.5195 27.5768 77.0487 26.8018 77.5519 25.0585C77.4785 25.3147 78.0249 25.421 78.2409 25.421C79.1049 25.2734 79.1264 24.0837 79.4051 23.8363C79.1891 26.5391 77.364 28.7534 75.3684 30.5857C75.1057 30.4259 74.7803 30.4111 74.5044 30.5466C74.4202 30.0386 75.5152 29.3309 74.8608 29.0205Z" fill="url(#paint4_linear_3_22)"/>
<path d="M78.3242 13.1023C75.7903 11.6552 72.9283 11.3173 70.2368 10.2428C74.2859 11.1093 79.1013 11.991 82.095 15.0325C82.1424 15.0563 82.2547 15.1668 82.3108 15.182C82.5698 15.3575 82.8655 15.9792 83.226 15.7496C76.945 3.447 57.8649 4.81612 48.7867 9.86149C49.2809 10.2428 49.8249 10.6912 50.3321 11.1245C52.0588 9.72068 59.0628 8.7415 59.6801 8.83682C57.3404 9.30691 53.4639 10.7194 51.1091 11.7787L51.4393 12.0581C56.2439 10.3619 63.5565 9.1791 68.7388 10.4269C64.5969 10.8883 57.213 10.8255 52.3005 12.7882C53.6495 13.8129 54.8517 15.6781 56.0108 17.0472C64.0249 13.124 68.6482 12.9962 72.7016 13.5096C73.0901 13.7262 69.8267 13.8627 70.6188 14.1032C71.4994 14.3068 73.1506 13.8172 73.5326 13.7674C73.7808 13.6872 75.3392 13.7392 75.8313 13.8324C77.7048 14.2895 75.9479 14.5278 75.2939 14.3739C74.9717 14.3481 74.6478 14.3546 74.3269 14.3934C73.6038 14.5299 72.7297 14.6902 72.0088 14.7985C71.8145 14.831 69.6151 14.7726 69.9497 15.0585C70.3706 15.0303 72.2225 15.3661 72.6995 15.3098C72.9865 15.2448 73.2779 15.3423 73.5499 15.195C73.6837 15.1018 74.2319 15.0347 74.2557 15.2643C73.6319 16.6594 71.7368 15.6131 70.3101 15.9142C69.0389 16.0095 67.6899 16.5793 67.4611 16.38C71.6311 13.8345 61.5017 17.6169 61.6723 18.2603C61.6835 18.2636 61.6955 18.2636 61.7068 18.2603C61.737 18.8301 63.3277 18.0004 63.6493 18.061C64.3465 18.0069 65.2897 17.5714 65.9696 17.4111C66.479 17.4111 66.6797 17.6668 67.187 17.5541C68.3007 17.5346 69.3065 17.0537 70.3814 16.8414C70.4763 16.8414 71.1476 17.1252 71.1152 17.2032C73.1398 19.025 74.2082 17.5065 76.4292 18.1065C76.7832 18.1542 76.3644 18.3838 76.2436 18.4553C75.0716 19.2828 73.6794 19.4107 72.3218 19.5103C72.0944 19.4835 71.8642 19.521 71.657 19.6186C71.2102 19.584 70.7936 19.8353 70.3468 19.7681C69.0755 19.7941 67.8194 19.9847 66.6776 20.5675C66.2459 20.652 65.7559 20.7213 65.4343 21.0441C65.1063 21.3105 64.612 21.2087 64.3228 21.5077C63.8307 21.8044 60.1182 22.5908 60.5369 23.3555C60.5369 23.3555 60.524 23.3555 60.5154 23.3555H60.5369C60.5389 23.3721 60.5389 23.3888 60.5369 23.4054C66.6689 22.5258 73.9794 18.1867 81.7129 21.4362C84.8965 23.0631 86.6772 25.8923 85.4081 31.3601C85.4189 31.3341 85.557 30.9702 85.5549 30.955L85.5311 30.9723C85.8916 29.6964 86.2218 28.6002 86.2132 27.3091C87.0441 22.5886 83.4742 15.9077 78.3242 13.1023ZM71.0677 8.48371C72.1923 8.73717 74.2535 9.11411 74.9269 9.82683C73.1592 9.80733 72.2829 9.04045 72.311 9.05995C71.9721 8.95597 70.908 8.57469 71.0677 8.48371Z" fill="#FAD50A"/>
<path d="M51.1311 11.826L50.3912 11.2115C52.1545 9.77127 59.0456 8.85277 59.7444 8.92392C58.7063 9.13316 57.6841 9.41413 56.6851 9.7648C54.8547 10.362 52.8382 11.108 51.1311 11.826ZM86.9215 21.7441C85.8397 13.6954 83.0833 6.62984 73.2627 4.0339C79.3359 5.5022 79.7924 6.25899 80.5843 6.78292C75.8677 2.42545 68.2691 0.90972 60.5883 2.21416C65.0669 0.767418 72.4275 0.944218 77.0317 3.79026C66.0492 -2.98634 52.849 -0.05621 44.7333 7.68201C46.2479 7.97524 47.5785 8.97567 48.8139 9.92866C58.0244 4.92221 77.0317 3.55094 83.3537 15.7976C82.9903 16.0261 82.7047 15.4095 82.4364 15.2327C82.3866 15.2176 82.2741 15.1076 82.22 15.0839C79.2169 12.0654 74.3964 11.1727 70.3332 10.3168C73.0442 11.3948 75.9001 11.7225 78.4402 13.1628C85.0673 16.9618 87.9601 24.6613 85.6666 30.9333L85.6904 30.9161C86.7107 27.9719 87.1293 24.8541 86.9215 21.7462V21.7441ZM64.5909 9.97394C60.3892 9.97394 55.0711 10.7631 51.4903 12.13L52.3298 12.8372C56.6072 11.2115 63.7969 10.7997 67.3149 10.666C71.125 10.5496 65.9843 9.98688 64.5909 9.97394ZM72.4081 9.13953C72.3388 9.10288 73.2886 9.89417 75.0303 9.90279C74.3488 9.19128 72.2934 8.82474 71.1597 8.56601C71.0039 8.65657 72.0705 9.03604 72.4102 9.13953H72.4081Z" fill="#F2940A"/>
<path fill-rule="evenodd" clip-rule="evenodd" d="M205.1 31.5999C205.1 33.3999 206.6 34.8999 208.5 34.8999C210.4 34.8999 211.9 33.3999 211.9 31.5999V20.7999H217.8V32.7999C217.8 36.7999 213.6 40.0999 208.4 40.0999C203.2 40.0999 199 36.7999 199 32.7999V20.7999H205V31.5999H205.1ZM231.3 39.3999H237.3V7.8999H231.3V39.3999ZM221.2 39.3999H227.2V7.8999H221.2V39.3999ZM111.4 14.4999H108.1V39.3999H101.7V9.3999H112.7C117.7 9.3999 121.7 13.3999 121.7 18.2999C121.7 22.3999 118.8 25.9999 114.8 26.8999L123.6 39.4999H116.1L109.7 29.6999V22.4999H111.2C113.6 22.4999 115.5 20.6999 115.5 18.5999C115.5 16.2999 113.7 14.4999 111.4 14.4999Z" fill="#D2003C"/>
<path fill-rule="evenodd" clip-rule="evenodd" d="M129.3 27.8999C129.2 25.8999 130.7 24.0999 132.8 23.9999C134.8 23.8999 136.6 25.3999 136.7 27.4999C136.7 27.5999 136.7 27.7999 136.7 27.8999H129.3ZM142.5 31.2999C142.5 30.8999 142.6 30.4999 142.6 29.9999C142.7 23.4999 138.4 19.8999 132.9 19.8999C127.4 19.8999 123 24.3999 123 29.8999C123 35.3999 127.4 39.8999 132.9 39.8999C137.1 39.8999 140.3 37.9999 142 35.0999L137.1 32.7999C136.4 34.1999 134.9 35.0999 133.3 35.0999C131 35.0999 129.2 33.3999 129.2 31.3999V31.1999C129.3 31.2999 142.5 31.2999 142.5 31.2999ZM156.1 34.7999C153.7 34.7999 151.7 32.5999 151.7 29.9999C151.7 27.2999 153.7 25.1999 156.1 25.1999C158.5 25.1999 160.5 27.3999 160.5 29.9999C160.5 32.6999 158.5 34.7999 156.1 34.7999ZM166.4 39.3999V7.8999H160.4V22.7999C158.8 21.1999 156.6 20.2999 154.4 20.2999C149.5 20.2999 145.4 24.6999 145.4 30.0999C145.4 35.4999 149.4 39.8999 154.4 39.8999C156.7 39.8999 158.9 38.8999 160.5 37.2999V39.3999H166.4ZM186.8 34.1999H181.1V14.4999H185.1C186.9 14.4999 188.3 16.0999 188.3 17.8999C188.3 19.6999 186.9 21.0999 185.1 21.0999H183V26.4999H186.8C188.9 26.4999 190.5 28.1999 190.5 30.2999V30.3999C190.4 32.4999 189.1 34.0999 186.8 34.1999ZM191.8 23.0999C193.5 21.5999 194.4 19.4999 194.4 17.2999C194.4 15.2999 193.6 13.3999 192.2 11.8999C190.8 10.2999 188.2 9.4999 184.8 9.4999H174.6V39.4999H187.9C193 39.3999 197.1 35.5999 197.1 30.8999C197 27.3999 195.8 24.9999 191.8 23.0999Z" fill="#D2003C"/>
<defs>
<linearGradient id="paint0_linear_3_22" x1="48.2946" y1="34.6741" x2="87.2682" y2="34.6741" gradientUnits="userSpaceOnUse">
<stop stop-color="#1885C8"/>
<stop offset="0.14" stop-color="#1881C3"/>
<stop offset="0.32" stop-color="#1A74B3"/>
<stop offset="0.52" stop-color="#1B6099"/>
<stop offset="0.73" stop-color="#1E4475"/>
<stop offset="0.96" stop-color="#212047"/>
<stop offset="1" stop-color="#22183D"/>
</linearGradient>
<linearGradient id="paint1_linear_3_22" x1="62.4641" y1="43.5779" x2="79.9742" y2="40.915" gradientUnits="userSpaceOnUse">
<stop offset="0.24" stop-color="#52BCE8"/>
<stop offset="1" stop-color="#3F88B9"/>
</linearGradient>
<linearGradient id="paint2_linear_3_22" x1="50.0667" y1="43.9447" x2="69.0533" y2="43.9447" gradientUnits="userSpaceOnUse">
<stop offset="0.54" stop-color="#52BCE8"/>
<stop offset="1" stop-color="#49A4D3"/>
</linearGradient>
<linearGradient id="paint3_linear_3_22" x1="79.0206" y1="27.9435" x2="81.3683" y2="27.4374" gradientUnits="userSpaceOnUse">
<stop stop-color="#3A78AC"/>
<stop offset="0.29" stop-color="#34689E"/>
<stop offset="0.86" stop-color="#253E78"/>
<stop offset="1" stop-color="#21336E"/>
</linearGradient>
<linearGradient id="paint4_linear_3_22" x1="48.9083" y1="32.2948" x2="81.8903" y2="25.025" gradientUnits="userSpaceOnUse">
<stop stop-color="#52BCE8"/>
<stop offset="0.25" stop-color="#51B9E6"/>
<stop offset="0.41" stop-color="#4EB0DE"/>
<stop offset="0.56" stop-color="#48A1D0"/>
<stop offset="0.69" stop-color="#418CBD"/>
<stop offset="0.78" stop-color="#3977AB"/>
<stop offset="0.85" stop-color="#33669C"/>
<stop offset="0.98" stop-color="#243B75"/>
<stop offset="1" stop-color="#21336E"/>
</linearGradient>
</defs>
</svg>
